<?xml version="1.0" encoding="UTF-8"?><svg id="Layer_1" xmlns="http://www.w3.org/2000/svg" viewBox="0 0 1080 306.08"><defs><style>.cls-1{fill:#fff;}</style></defs><path class="cls-1" d="M227.61,20c6.47,0,9.7,3.64,8.49,10.11l-39.63,249.89c-.81,5.66-4.04,8.49-9.7,8.49h-32.35c-5.66,0-8.9-2.43-10.92-7.68l-62.67-182.76h-.81l-28.71,181.96c-.81,5.66-4.04,8.49-9.7,8.49H12.9c-6.47,0-9.7-3.64-8.49-10.11L44.03,28.49c.81-5.66,4.04-8.49,9.7-8.49h36.39c5.66,0,8.9,2.43,10.92,7.68l59.84,175.89h.81l27.5-175.08c.81-5.66,4.04-8.49,9.7-8.49h28.71Z"/><path class="cls-1" d="M235.28,288.49c-6.47,0-9.7-3.64-8.49-10.11l29.11-182.36c.81-5.66,4.04-8.49,9.7-8.49h25.47c6.47,0,9.7,3.64,8.49,10.11l-29.11,182.36c-.81,5.66-4.04,8.49-9.7,8.49h-25.47Z"/><path class="cls-1" d="M572.1,142.52c0,5.26-.4,11.32-1.62,17.39l-19,120.09c-.81,5.66-4.04,8.49-9.7,8.49h-25.47c-6.47,0-9.7-3.64-8.49-10.11l18.6-117.66c.81-4.45,1.21-8.9,1.21-12.53,0-18.6-8.9-27.5-27.09-27.5-21.03,0-32.35,12.94-36.8,40.03l-19,119.28c-.81,5.66-4.04,8.49-9.7,8.49h-25.47c-6.47,0-9.7-3.64-8.49-10.11l18.6-117.66c.81-4.45,1.21-8.9,1.21-12.53,0-18.6-8.9-27.5-27.09-27.5-21.03,0-32.35,12.94-36.8,40.03l-19,119.28c-.81,5.66-4.04,8.49-9.7,8.49h-25.47c-6.47,0-9.7-3.64-8.49-10.11l19-121.71c7.68-48.93,34.37-74,79.66-74,25.47,0,44.07,8.49,54.59,23.45h.81c12.94-15.37,31.94-23.45,57.01-23.45,42.46,0,66.72,21.84,66.72,59.84Z"/><path class="cls-1" d="M750.81,142.92c0,5.66-.4,11.73-1.62,18.2l-9.3,57.01c-7.68,49.33-36.39,75.21-86.13,75.21-46.1,0-71.97-22.64-71.97-62.27,0-5.26.4-10.51,1.21-16.17l32.35-200.96c.81-5.66,4.04-8.49,9.7-8.49h25.47c6.47,0,9.7,3.64,8.49,10.11l-12.94,80.87h.81c10.51-9.3,24.26-13.75,40.84-13.75,40.84,0,63.08,21.84,63.08,60.25ZM704.31,162.73c.81-4.85,1.21-9.3,1.21-13.34,0-19.41-9.7-28.71-29.11-28.71-22.64,0-36.39,14.56-40.84,42.46l-7.68,50.14c-.81,4.85-1.21,8.9-1.21,12.94,0,19.41,9.7,29.11,29.11,29.11,23.45,0,36.39-13.75,40.84-42.46l7.68-50.14Z"/><path class="cls-1" d="M908.1,220.56c-7.68,48.12-35.18,72.78-83.3,72.78-44.48,0-69.55-21.84-69.55-60.25,0-4.85.4-10.11,1.21-15.77l19.41-121.3c.81-5.66,4.04-8.49,9.7-8.49h25.47c6.47,0,9.7,3.64,8.49,10.11l-19,119.69c-.81,4.04-.81,8.09-.81,11.32,0,18.6,8.9,26.69,27.9,26.69,23.05,0,34.37-12.94,38.41-39.63l19-119.69c.81-5.66,4.04-8.49,9.7-8.49h24.26c6.47,0,9.7,3.64,8.49,10.11l-19.41,122.92Z"/><path class="cls-1" d="M914.16,271.5c-4.04-3.64-4.04-8.49-.4-12.94l13.75-16.58c4.04-4.85,8.09-4.85,12.94-.81,10.92,9.3,26.69,14.56,43.67,14.56,24.26,0,37.2-9.3,37.2-26.69,0-11.73-8.09-17.79-34.37-22.64-40.84-7.68-56.2-22.24-56.2-52.97,0-43.27,32.35-70.76,83.3-70.76,23.05,0,43.27,5.66,57.42,15.37,4.85,3.64,4.85,8.49,1.21,13.34l-12.53,16.17c-3.64,4.85-7.68,5.26-12.94,1.62-9.3-5.66-20.62-8.89-33.16-8.89-25.07,0-38.82,9.3-38.82,26.28,0,10.92,8.09,16.17,32.75,20.62,42.05,7.68,57.82,22.64,57.82,54.99,0,43.67-31.54,71.17-81.27,71.17-31.13,0-52.97-6.87-70.36-21.84Z"/><polygon class="cls-1" points="287.38 10.61 253.53 76.07 283.67 61.2 311.96 80.09 287.38 10.61"/></svg>